<?xml version="1.0" encoding="utf-8"?>
<!-- Generator: Adobe Illustrator 16.0.0, SVG Export Plug-In . SVG Version: 6.00 Build 0)  -->
<!DOCTYPE svg PUBLIC "-//W3C//DTD SVG 1.1//EN" "http://www.w3.org/Graphics/SVG/1.1/DTD/svg11.dtd">
<svg version="1.1" xmlns="http://www.w3.org/2000/svg" xmlns:xlink="http://www.w3.org/1999/xlink" x="0px" y="0px" width="800px"
	 height="800px" viewBox="0 0 800 800" enable-background="new 0 0 800 800" xml:space="preserve">
<g id="Calque_6" display="none">
	<rect x="-6.5" y="-22.5" display="inline" fill="#8CC63F" stroke="#000000" stroke-miterlimit="10" width="813" height="823"/>
</g>
<g id="poche">
	<g id="Calque_2">
	</g>
	<g id="Grand">
		<path fill="#50BCB6" d="M103.46,84.349c-0.35-0.047-0.46,0.204-0.46,0.556v517.328c0,0.353,0.053,0.818,0.332,1.033
			c0,0,34.685,26.85,132.876,68.53c98.191,41.682,163.638,55.768,163.638,55.768c0.345,0.074,0.888,0.077,1.233,0.006
			c0,0,63.935-13.087,164.932-55.57s131.716-68.709,131.716-68.709c0.269-0.229,0.486-0.705,0.487-1.058l1.698-517.328
			c0.001-0.353-0.285-0.612-0.636-0.578c0,0-125.84,12.535-297.907,14.672C229.301,101.138,103.46,84.349,103.46,84.349z"/>
		<path fill="none" stroke="#50BCB6" stroke-width="15" stroke-miterlimit="10" d="M103.21,84.349
			c-0.35-0.047-0.71,0.204-0.71,0.556v517.328c0,0.353,0.303,0.818,0.582,1.033c0,0,34.81,26.85,133.001,68.53
			c98.191,41.682,163.7,55.768,163.7,55.768c0.345,0.074,0.919,0.077,1.264,0.006c0,0,63.95-13.087,164.947-55.57
			s131.724-68.709,131.724-68.709c0.269-0.229,0.49-0.705,0.491-1.058l1.7-517.328c0.001-0.353-0.284-0.612-0.635-0.578
			c0,0-125.964,12.535-298.031,14.672C229.176,101.138,103.21,84.349,103.21,84.349z"/>
	</g>
	<g id="Petit" display="none">
		<path display="inline" fill="#E6E6E6" d="M103.464,197.192c-0.352,0.028-0.464,0.34-0.464,0.692v404.349
			c0,0.353,0.081,0.773,0.395,0.935c0,0,40.623,20.948,138.814,62.629c98.191,41.682,157.657,61.698,157.657,61.698
			c0.334,0.112,0.859,0.112,1.193,0c0,0,61.903-20.817,162.9-63.301s133.698-61.003,133.698-61.003
			c0.307-0.174,0.556-0.604,0.557-0.958l1.467-398.098c0.001-0.353-0.283-0.688-0.631-0.744c0,0-125.894-20.53-297.962-18.392
			C229.02,187.137,103.464,197.192,103.464,197.192z"/>
		<path display="inline" fill="none" stroke="#808080" stroke-width="38" stroke-miterlimit="10" d="M103.464,197.192
			c-0.352,0.028-0.464,0.34-0.464,0.692v404.349c0,0.353,0.081,0.773,0.395,0.935c0,0,40.623,20.948,138.814,62.629
			c98.191,41.682,157.657,61.698,157.657,61.698c0.334,0.112,0.859,0.112,1.193,0c0,0,61.903-20.817,162.9-63.301
			s133.698-61.003,133.698-61.003c0.307-0.174,0.556-0.604,0.557-0.958l1.467-398.098c0.001-0.353-0.283-0.688-0.631-0.744
			c0,0-125.894-20.53-297.962-18.392C229.02,187.137,103.464,197.192,103.464,197.192z"/>
	</g>
</g>
<g id="points_poche">
</g>
<g id="v">
	<g>
		<g>
			<g>
				<path fill="#FFFFFF" d="M403.398,546.718c-1.164,1.026-2.989,0.942-4.055-0.186c0,0-48.021-50.812-104.248-104.443
					c-56.225-53.632-86.707-90.813-86.707-90.813c-0.983-1.2-0.928-3.116,0.124-4.257l44.772-48.581
					c1.052-1.141,2.797-1.165,3.88-0.052l72.745,74.769c1.082,1.112,2.88,2.905,3.995,3.984l69.408,67.147
					c1.115,1.079,2.934,1.073,4.042-0.014l65.975-64.684c1.108-1.086,2.875-2.909,3.926-4.05l71.006-77.1
					c1.051-1.141,2.807-1.175,3.9-0.074l48.43,48.728c1.094,1.101,1.155,2.958,0.136,4.128c0,0-39.171,44.935-86.642,92.368
					C466.616,491.022,403.398,546.718,403.398,546.718z"/>
				<path fill="none" stroke="#1A1A1A" stroke-width="2" stroke-miterlimit="10" d="M403.398,546.718
					c-1.164,1.026-2.989,0.942-4.055-0.186c0,0-48.021-50.812-104.248-104.443c-56.225-53.632-86.707-90.813-86.707-90.813
					c-0.983-1.2-0.928-3.116,0.124-4.257l44.772-48.581c1.052-1.141,2.797-1.165,3.88-0.052l72.745,74.769
					c1.082,1.112,2.88,2.905,3.995,3.984l69.408,67.147c1.115,1.079,2.934,1.073,4.042-0.014l65.975-64.684
					c1.108-1.086,2.875-2.909,3.926-4.05l71.006-77.1c1.051-1.141,2.807-1.175,3.9-0.074l48.43,48.728
					c1.094,1.101,1.155,2.958,0.136,4.128c0,0-39.171,44.935-86.642,92.368C466.616,491.022,403.398,546.718,403.398,546.718z"/>
			</g>
		</g>
	</g>
</g>
</svg>
