<svg enable-background="new 0 0 837 864" height="864" viewBox="0 0 837 864" width="837" xmlns="http://www.w3.org/2000/svg"><path d="m835.499 40.101c-.054-10.662-4.644-20.797-12.622-27.871-7.979-7.074-18.598-10.417-29.183-9.191-108.498 12.541-235.738 19.666-378.188 21.178-12.571.134-25.174.201-37.458.201-126.268 0-238.84-7.142-334.59-21.228-10.782-1.586-21.72 1.597-29.969 8.72-8.248 7.124-12.989 17.483-12.989 28.381v558.709c0 9.317 6.166 30.521 14.66 50.422 13.576 31.805 33.646 62.551 58.039 88.915 34.224 36.989 77.254 66.357 127.896 87.287 61.538 25.434 134.489 38.329 216.827 38.329 82.337 0 155.292-12.883 216.838-38.291 50.656-20.913 93.704-50.259 127.946-87.224 24.42-26.359 44.512-57.104 58.103-88.905 8.469-19.814 14.646-40.991 14.69-50.342.944-184.692.944-372.797 0-559.09zm-247.06 421.17c-44.645 37.883-90.663 75.186-136.78 110.87-9.896 7.657-21.774 11.503-33.662 11.503-11.326 0-22.66-3.487-32.307-10.49-43.056-31.254-90.047-69.066-139.671-112.387-49.521-43.228-94.617-85.792-134.036-126.513l79.033-76.51c37.287 38.517 80.13 78.943 127.342 120.155 34.611 30.215 67.736 57.508 98.887 81.489 33.746-26.719 67.263-54.192 100.021-81.991 42.694-36.229 85.704-76.527 127.837-119.776l78.793 76.757c-44.548 45.73-90.123 88.423-135.457 126.893z" fill="#44a0c1"/></svg>