<?xml version="1.0" encoding="utf-8"?>
<!-- Generator: Adobe Illustrator 16.0.0, SVG Export Plug-In . SVG Version: 6.00 Build 0)  -->
<!DOCTYPE svg PUBLIC "-//W3C//DTD SVG 1.1//EN" "http://www.w3.org/Graphics/SVG/1.1/DTD/svg11.dtd">
<svg version="1.1" id="Calque_1" xmlns="http://www.w3.org/2000/svg" xmlns:xlink="http://www.w3.org/1999/xlink" x="0px" y="0px"
	 width="837px" height="864px" viewBox="0 0 837 864" enable-background="new 0 0 837 864" xml:space="preserve">
<path fill="#BEBEBE" d="M835.499,40.101c-0.054-10.662-4.644-20.797-12.622-27.871c-7.979-7.074-18.598-10.417-29.183-9.191
	C685.196,15.58,557.956,22.705,415.506,24.217c-12.571,0.134-25.174,0.201-37.458,0.201c-126.268,0-238.84-7.142-334.59-21.228
	c-10.782-1.586-21.72,1.597-29.969,8.72C5.241,19.034,0.5,29.393,0.5,40.291V599c0,9.317,6.166,30.522,14.66,50.422
	c13.576,31.805,33.646,62.551,58.039,88.915c34.224,36.989,77.254,66.357,127.896,87.287
	c61.538,25.434,134.489,38.329,216.827,38.329c82.337,0,155.292-12.883,216.838-38.291c50.656-20.913,93.704-50.259,127.946-87.223
	c24.42-26.36,44.512-57.104,58.103-88.906c8.468-19.814,14.646-40.991,14.69-50.342C836.443,414.499,836.443,226.394,835.499,40.101
	z M588.439,461.271c-44.644,37.883-90.663,75.186-136.78,110.871c-9.896,7.657-21.774,11.502-33.662,11.502
	c-11.326,0-22.66-3.487-32.307-10.49c-43.055-31.254-90.047-69.066-139.671-112.386c-49.521-43.228-94.617-85.793-134.036-126.513
	l79.033-76.51c37.287,38.517,80.13,78.943,127.342,120.155c34.612,30.215,67.737,57.508,98.887,81.489
	c33.746-26.719,67.263-54.193,100.022-81.991c42.694-36.229,85.704-76.527,127.836-119.776l78.793,76.757
	C679.348,380.108,633.773,422.801,588.439,461.271z"/>
</svg>
