<?xml version="1.0" encoding="utf-8"?>
<!-- Generator: Adobe Illustrator 16.0.0, SVG Export Plug-In . SVG Version: 6.00 Build 0)  -->
<!DOCTYPE svg PUBLIC "-//W3C//DTD SVG 1.1//EN" "http://www.w3.org/Graphics/SVG/1.1/DTD/svg11.dtd">
<svg version="1.1" id="Calque_1" xmlns="http://www.w3.org/2000/svg" xmlns:xlink="http://www.w3.org/1999/xlink" x="0px" y="0px"
	 width="800px" height="800px" viewBox="0 0 800 800" enable-background="new 0 0 800 800" xml:space="preserve">
<g id="Calque_6" display="none">
	<rect x="-6.5" y="-22.5" display="inline" fill="#8CC63F" stroke="#000000" stroke-miterlimit="10" width="813" height="823"/>
</g>
<g id="poche">
	<g id="Calque_2">
	</g>
	<g id="Grand">
		<path fill="#50BCB6" d="M43.91,15.024c-0.42-0.057-0.552,0.244-0.552,0.667v620.794c0,0.423,0.063,0.98,0.398,1.238
			c0,0,41.622,32.221,159.451,82.236c117.83,50.02,196.365,66.923,196.365,66.923c0.415,0.088,1.066,0.091,1.48,0.007
			c0,0,76.721-15.704,197.918-66.685c121.196-50.979,158.059-82.45,158.059-82.45c0.323-0.274,0.584-0.847,0.585-1.27l2.038-620.794
			c0.001-0.424-0.343-0.734-0.764-0.693c0,0-152.651,6.043-359.131,8.607C193.276,26.172,43.91,15.024,43.91,15.024z"/>
		<path fill="none" stroke="#50BCB6" stroke-width="18" stroke-miterlimit="10" d="M43.61,15.024
			c-0.42-0.057-0.852,0.244-0.852,0.667v620.794c0,0.423,0.363,0.98,0.698,1.238c0,0,41.771,32.221,159.601,82.236
			c117.83,50.02,196.44,66.923,196.44,66.923c0.414,0.088,1.103,0.091,1.517,0.007c0,0,76.74-15.704,197.937-66.685
			c121.196-50.979,158.068-82.45,158.068-82.45c0.323-0.274,0.589-0.847,0.59-1.27l2.04-620.794
			c0.001-0.424-0.341-0.734-0.762-0.693c0,0-152.648,6.043-359.129,8.607C193.277,26.172,43.61,15.024,43.61,15.024z"/>
	</g>
	<g id="Petit" display="none">
		<path display="inline" fill="#E6E6E6" d="M43.915,150.436c-0.423,0.033-0.557,0.408-0.557,0.83v485.22
			c0,0.423,0.098,0.927,0.474,1.121c0,0,48.748,25.139,166.577,75.155C328.239,762.78,399.598,786.8,399.598,786.8
			c0.401,0.135,1.03,0.135,1.431,0c0,0,74.284-24.981,195.48-75.961c121.197-50.981,160.438-73.204,160.438-73.204
			c0.368-0.21,0.667-0.726,0.668-1.149l1.76-477.719c0.001-0.423-0.339-0.824-0.757-0.892c0,0-151.072-24.637-357.555-22.071
			C194.582,138.369,43.915,150.436,43.915,150.436z"/>
		<path display="inline" fill="none" stroke="#808080" stroke-width="45.6" stroke-miterlimit="10" d="M43.915,150.436
			c-0.423,0.033-0.557,0.408-0.557,0.83v485.22c0,0.423,0.098,0.927,0.474,1.121c0,0,48.748,25.139,166.577,75.155
			C328.239,762.78,399.598,786.8,399.598,786.8c0.401,0.135,1.03,0.135,1.431,0c0,0,74.284-24.981,195.48-75.961
			c121.197-50.981,160.438-73.204,160.438-73.204c0.368-0.21,0.667-0.726,0.668-1.149l1.76-477.719
			c0.001-0.423-0.339-0.824-0.757-0.892c0,0-151.072-24.637-357.555-22.071C194.582,138.369,43.915,150.436,43.915,150.436z"/>
	</g>
</g>
<g id="points_poche">
</g>
<g id="v">
	<g>
		<g>
			<g>
				<path fill="#FFFFFF" d="M403.837,569.866c-1.397,1.232-3.588,1.131-4.867-0.223c0,0-57.625-60.975-125.097-125.332
					c-67.471-64.357-104.049-108.976-104.049-108.976c-1.18-1.439-1.114-3.738,0.148-5.107l53.727-58.298
					c1.263-1.369,3.356-1.397,4.656-0.062l87.294,89.723c1.299,1.334,3.456,3.485,4.794,4.78l83.29,80.576
					c1.337,1.295,3.521,1.288,4.85-0.016l79.17-77.622c1.33-1.303,3.45-3.49,4.711-4.859l85.207-92.521
					c1.263-1.369,3.369-1.409,4.681-0.088l58.116,58.474c1.312,1.321,1.386,3.549,0.162,4.953c0,0-47.005,53.922-103.97,110.841
					C479.698,503.032,403.837,569.866,403.837,569.866z"/>
				<path fill="none" stroke="#1A1A1A" stroke-width="2.4" stroke-miterlimit="10" d="M403.837,569.866
					c-1.397,1.232-3.588,1.131-4.867-0.223c0,0-57.625-60.975-125.097-125.332c-67.471-64.357-104.049-108.976-104.049-108.976
					c-1.18-1.439-1.114-3.738,0.148-5.107l53.727-58.298c1.263-1.369,3.356-1.397,4.656-0.062l87.294,89.723
					c1.299,1.334,3.456,3.485,4.794,4.78l83.29,80.576c1.337,1.295,3.521,1.288,4.85-0.016l79.17-77.622
					c1.33-1.303,3.45-3.49,4.711-4.859l85.207-92.521c1.263-1.369,3.369-1.409,4.681-0.088l58.116,58.474
					c1.312,1.321,1.386,3.549,0.162,4.953c0,0-47.005,53.922-103.97,110.841C479.698,503.032,403.837,569.866,403.837,569.866z"/>
			</g>
		</g>
	</g>
</g>
</svg>
