<?xml version="1.0" encoding="UTF-8"?>
<svg width="624px" height="624px" viewBox="0 0 624 624" version="1.1" xmlns="http://www.w3.org/2000/svg" xmlns:xlink="http://www.w3.org/1999/xlink">
    <!-- Generator: Sketch 59.1 (86144) - https://sketch.com -->
    <title>Artboard disabled</title>
    <desc>Created with Sketch.</desc>
    <defs>
        <path d="M311.750913,-43.8545571 L500.332973,144.727503 C504.950604,149.345134 507.578138,155.586275 507.653632,162.116156 L512.572753,587.593027 C512.732372,601.399223 501.669636,612.720753 487.86344,612.880373 C481.133267,612.958183 474.656023,610.318982 469.896754,605.559713 L312.035408,447.698367 C302.272301,437.93526 286.443176,437.93526 276.680069,447.698367 L118.007259,606.371177 C108.244152,616.134284 92.4150274,616.134284 82.6519201,606.371177 C77.9586921,601.677949 75.3243766,595.311067 75.3295974,588.673843 L75.661111,167.215588 C75.6663211,160.591992 78.2998425,154.241174 82.9834338,149.557583 L276.395574,-43.8545571 C286.158681,-53.6176644 301.987806,-53.6176644 311.750913,-43.8545571 Z" id="path-1"></path>
    </defs>
    <g id="Page-1" stroke="none" stroke-width="1" fill="none" fill-rule="evenodd">
        <g id="Artboard-disabled" transform="translate(-42.000000, -42.000000)">
            <mask id="mask-2" fill="white">
                <use xlink:href="#path-1"></use>
            </mask>
            <path stroke="#2a2930" stroke-width="50" transform="translate(-122, 294) rotate(315)" d="M294.073243,-4.96368416 L115.656217,173.453342 L115.358102,552.451792 L248.395798,419.414096 C273.779877,394.030017 314.9356,394.030017 340.319679,419.414096 L472.149836,551.244252 L467.726963,168.690035 L294.073243,-4.96368416 Z"></path>
        </g>
    </g>
</svg>
