<?xml version="1.0" encoding="utf-8"?>
<!-- Generator: Adobe Illustrator 16.0.0, SVG Export Plug-In . SVG Version: 6.00 Build 0)  -->
<!DOCTYPE svg PUBLIC "-//W3C//DTD SVG 1.1//EN" "http://www.w3.org/Graphics/SVG/1.1/DTD/svg11.dtd">
<svg version="1.1" xmlns="http://www.w3.org/2000/svg" xmlns:xlink="http://www.w3.org/1999/xlink" x="0px" y="0px" width="800px"
	 height="800px" viewBox="0 0 800 800" enable-background="new 0 0 800 800" xml:space="preserve">
<g id="Calque_6" display="none">
	<rect x="-6.5" y="-22.5" display="inline" fill="#8CC63F" stroke="#000000" stroke-miterlimit="10" width="813" height="823"/>
</g>
<g id="poche">
	<g id="Calque_2">
	</g>
	<g id="Grand">
		<path fill="#808080" d="M52.675,29.726C52.271,29.642,52,29.91,52,30.323v591.006c0,0.412,0.166,1.002,0.441,1.31
			c0,0,40.747,45.581,155.631,94.347c114.884,48.768,191.493,65.248,191.493,65.248c0.403,0.087,1.057,0.091,1.462,0.008
			c0,0,74.812-15.312,192.979-65.018c118.167-49.706,154.287-97.538,154.287-97.538c0.249-0.329,0.452-0.937,0.454-1.349
			l1.931-588.014c0.002-0.413-0.33-0.692-0.736-0.621c0,0-147.312,25.904-348.631,28.405
			C199.992,60.609,52.675,29.726,52.675,29.726z"/>
		<path fill="none" stroke="#666666" stroke-width="18" stroke-miterlimit="10" d="M52.675,29.726C52.271,29.642,52,29.91,52,30.323
			v591.006c0,0.412,0.166,1.002,0.441,1.31c0,0,40.747,45.581,155.631,94.347c114.884,48.768,191.493,65.248,191.493,65.248
			c0.403,0.087,1.057,0.091,1.462,0.008c0,0,74.812-15.312,192.979-65.018c118.167-49.706,154.287-97.538,154.287-97.538
			c0.249-0.329,0.452-0.937,0.454-1.349l1.931-588.014c0.002-0.413-0.33-0.692-0.736-0.621c0,0-147.312,25.904-348.631,28.405
			C199.992,60.609,52.675,29.726,52.675,29.726z"/>
	</g>
	<g id="Petit" display="none">
		<path display="inline" fill="#E6E6E6" d="M103.464,197.192c-0.352,0.028-0.464,0.34-0.464,0.692v404.349
			c0,0.353,0.081,0.773,0.395,0.935c0,0,40.623,20.948,138.814,62.629c98.191,41.682,157.657,61.698,157.657,61.698
			c0.334,0.112,0.859,0.112,1.193,0c0,0,61.903-20.817,162.9-63.301s133.698-61.003,133.698-61.003
			c0.307-0.174,0.556-0.604,0.557-0.958l1.467-398.098c0.001-0.353-0.283-0.688-0.631-0.744c0,0-125.894-20.53-297.962-18.392
			C229.02,187.137,103.464,197.192,103.464,197.192z"/>
		<path display="inline" fill="none" stroke="#808080" stroke-width="38" stroke-miterlimit="10" d="M103.464,197.192
			c-0.352,0.028-0.464,0.34-0.464,0.692v404.349c0,0.353,0.081,0.773,0.395,0.935c0,0,40.623,20.948,138.814,62.629
			c98.191,41.682,157.657,61.698,157.657,61.698c0.334,0.112,0.859,0.112,1.193,0c0,0,61.903-20.817,162.9-63.301
			s133.698-61.003,133.698-61.003c0.307-0.174,0.556-0.604,0.557-0.958l1.467-398.098c0.001-0.353-0.283-0.688-0.631-0.744
			c0,0-125.894-20.53-297.962-18.392C229.02,187.137,103.464,197.192,103.464,197.192z"/>
	</g>
</g>
<g id="points_poche">
</g>
<g id="v">
	<g>
		<g>
			<g>
				<path fill="#FFFFFF" d="M403.758,570.643c-1.362,1.2-3.497,1.103-4.744-0.217c0,0-56.185-59.449-121.97-122.198
					c-65.783-62.749-101.447-106.252-101.447-106.252c-1.151-1.404-1.086-3.645,0.145-4.98l52.383-56.839
					c1.23-1.335,3.273-1.363,4.54-0.062l85.111,87.479c1.266,1.301,3.37,3.399,4.675,4.662l81.207,78.563
					c1.306,1.262,3.434,1.255,4.73-0.017l77.19-75.68c1.297-1.271,3.364-3.404,4.594-4.739l83.076-90.206
					c1.229-1.335,3.283-1.375,4.563-0.087l56.663,57.012c1.28,1.288,1.351,3.461,0.158,4.83c0,0-45.829,52.574-101.37,108.07
					C477.723,505.479,403.758,570.643,403.758,570.643z"/>
				<path fill="none" stroke="#1A1A1A" stroke-width="2.34" stroke-miterlimit="10" d="M403.758,570.643
					c-1.362,1.2-3.497,1.103-4.744-0.217c0,0-56.185-59.449-121.97-122.198c-65.783-62.749-101.447-106.252-101.447-106.252
					c-1.151-1.404-1.086-3.645,0.145-4.98l52.383-56.839c1.23-1.335,3.273-1.363,4.54-0.062l85.111,87.479
					c1.266,1.301,3.37,3.399,4.675,4.662l81.207,78.563c1.306,1.262,3.434,1.255,4.73-0.017l77.19-75.68
					c1.297-1.271,3.364-3.404,4.594-4.739l83.076-90.206c1.229-1.335,3.283-1.375,4.563-0.087l56.663,57.012
					c1.28,1.288,1.351,3.461,0.158,4.83c0,0-45.829,52.574-101.37,108.07C477.723,505.479,403.758,570.643,403.758,570.643z"/>
			</g>
		</g>
	</g>
</g>
</svg>
